        <svg width="208" height="35" viewBox="0 0 208 35" fill="none" xmlns="http://www.w3.org/2000/svg">
            <path d="M27.3498 2.46298e-05C26.353 -0.00256533 25.3656 0.199132 24.4447 0.593441C23.5239 0.98775 22.6879 1.56684 21.9851 2.29719L17.4636 6.96846L12.9421 2.29719C11.881 1.20382 10.5302 0.45969 9.06013 0.158693C7.59006 -0.142303 6.06664 0.0133273 4.6821 0.605945C3.29757 1.19856 2.11397 2.20161 1.28068 3.4885C0.44739 4.7754 0.00175068 6.28846 0 7.83676L0 34.8065H2.49214V7.83676C2.49457 6.79717 2.79486 5.78159 3.35515 4.91805C3.91543 4.05451 4.71064 3.38167 5.64051 2.98435C6.57039 2.58703 7.59331 2.48302 8.58032 2.68543C9.56732 2.88784 10.4742 3.38761 11.1867 4.12173L15.6923 8.793L13.4448 11.1149C12.3901 12.2086 11.7962 13.6883 11.7922 15.2321C11.7882 16.7759 12.3745 18.2588 13.4235 19.3583C11.4722 20.1875 9.80286 21.5961 8.6268 23.406C7.45074 25.2158 6.82084 27.3454 6.81683 29.5252V34.7982H9.30897V29.5334C9.34757 27.3257 10.2235 25.222 11.7484 23.6748C13.2732 22.1276 15.3251 21.2608 17.4623 21.2608C19.5995 21.2608 21.6514 22.1276 23.1762 23.6748C24.7011 25.222 25.577 27.3257 25.6156 29.5334V34.8065H28.1078V29.5334C28.1037 27.3529 27.4731 25.2227 26.296 23.4127C25.1189 21.6028 23.4483 20.1946 21.4957 19.3665C22.5385 18.2661 23.1187 16.7848 23.1102 15.2449C23.1018 13.7049 22.5053 12.2306 21.4505 11.1424L19.2137 8.793L23.7485 4.12173C24.4607 3.38573 25.3681 2.88431 26.356 2.68082C27.3439 2.47733 28.3681 2.5809 29.299 2.97844C30.23 3.37598 31.026 4.04966 31.5866 4.91437C32.1471 5.77909 32.447 6.79604 32.4484 7.83676V34.8065H34.9406V7.83676C34.9377 5.75827 34.1369 3.76583 32.7138 2.29662C31.2907 0.827424 29.3616 0.00147812 27.3498 2.46298e-05ZM19.6818 12.9532C20.2765 13.5646 20.6117 14.395 20.6137 15.2618C20.6157 16.1286 20.2843 16.9606 19.6925 17.575C19.1006 18.1893 18.2968 18.5356 17.4579 18.5377C16.6189 18.5397 15.8135 18.1974 15.2188 17.586C14.6254 16.971 14.2921 16.138 14.2921 15.2696C14.2921 14.4012 14.6254 13.5682 15.2188 12.9532L17.4583 10.6368L19.6818 12.9532Z" fill="white" />
            <path d="M51.8047 8.26318H55.2384L61.5073 24.5906L67.5794 8.26318H70.9838V29.2207H68.5156V11.577L61.7919 29.2207H61.0259L54.0734 11.577V29.2207H51.8047V8.26318Z" fill="white" />
            <path d="M72.7988 21.7081V21.4745C72.7988 16.8417 75.6633 13.6185 79.7487 13.6185C83.1823 13.6185 86.4165 15.7591 86.4165 21.2382V22.0378H75.2458C75.3601 25.5275 76.9772 27.462 80.012 27.462C82.31 27.462 83.6451 26.5827 83.9563 24.7938H86.3102C85.7995 27.8714 83.3313 29.4843 79.9854 29.4843C75.7777 29.4843 72.7988 26.4343 72.7988 21.7081ZM84.0042 20.0594C83.7808 16.9104 82.1849 15.6629 79.7487 15.6629C77.3124 15.6629 75.7219 17.35 75.3229 20.0759L84.0042 20.0594Z" fill="white" />
            <path d="M88.0371 21.8648V21.6285C88.0371 16.938 90.8724 13.6269 94.9524 13.6269C97.4206 13.6269 98.9419 14.8579 99.8037 16.3527V6.56226H102.16V29.2206H99.8037V26.5827C98.9526 28.0776 96.878 29.4844 94.7263 29.4844C90.8431 29.4844 88.0371 26.6542 88.0371 21.8648ZM99.8941 21.6587V21.4334C99.8941 17.5068 98.0802 15.663 95.1864 15.663C92.2341 15.663 90.4761 17.8035 90.4761 21.524V21.7604C90.4761 25.6293 92.4895 27.4758 94.9976 27.4758C97.7371 27.462 99.8914 25.5853 99.8914 21.6587H99.8941Z" fill="white" />
            <path d="M104.543 9.0847C104.542 8.76557 104.634 8.45345 104.805 8.18784C104.976 7.92223 105.22 7.71507 105.505 7.59256C105.79 7.47006 106.104 7.43773 106.407 7.49965C106.71 7.56158 106.989 7.71498 107.207 7.94045C107.426 8.16592 107.575 8.45331 107.635 8.76627C107.696 9.07923 107.665 9.40368 107.547 9.69857C107.429 9.99346 107.229 10.2455 106.972 10.4229C106.715 10.6002 106.413 10.6949 106.104 10.6949C105.692 10.6913 105.297 10.5206 105.005 10.2195C104.713 9.91838 104.547 9.5109 104.543 9.0847ZM104.969 13.8906H107.325V29.2206H104.969V13.8906Z" fill="white" />
            <path d="M109.594 21.7081V21.4745C109.594 16.8417 112.458 13.6185 116.544 13.6185C119.977 13.6185 123.211 15.7591 123.211 21.2382V22.0378H112.041C112.155 25.5275 113.772 27.462 116.807 27.462C119.105 27.462 120.44 26.5827 120.751 24.7938H123.105C122.586 27.8714 120.118 29.4843 116.762 29.4843C112.573 29.4843 109.594 26.4343 109.594 21.7081ZM120.799 20.0594C120.573 16.8939 118.985 15.6327 116.544 15.6327C114.102 15.6327 112.506 17.35 112.118 20.0759L120.799 20.0594Z" fill="white" />
            <path d="M125.876 25.3792V15.9378H123.748V13.8906H125.876V10.4037H128.232V13.8906H131.69V15.9378H128.232V25.1457C128.232 26.6405 128.884 27.3741 130.076 27.3741C130.696 27.3874 131.312 27.2773 131.892 27.0499V29.1025C131.245 29.3356 130.561 29.4445 129.876 29.424C127.182 29.424 125.876 27.7835 125.876 25.3792Z" fill="white" />
            <path d="M133.621 9.0847C133.621 8.76557 133.712 8.45345 133.883 8.18784C134.054 7.92223 134.298 7.71507 134.583 7.59256C134.868 7.47006 135.182 7.43773 135.485 7.49965C135.788 7.56158 136.067 7.71498 136.285 7.94045C136.504 8.16592 136.653 8.45331 136.713 8.76627C136.774 9.07923 136.743 9.40368 136.625 9.69857C136.507 9.99346 136.307 10.2455 136.05 10.4229C135.793 10.6002 135.491 10.6949 135.182 10.6949C134.77 10.6913 134.375 10.5206 134.083 10.2195C133.791 9.91838 133.625 9.5109 133.621 9.0847ZM134.049 13.8906H136.403V29.2206H134.049V13.8906Z" fill="white" />
            <path d="M139.834 6.56226H142.228V29.2206H139.834V6.56226Z" fill="white" />
            <path d="M144.375 24.4999H146.673C146.843 26.3189 147.779 27.462 150.163 27.462C152.402 27.462 153.397 26.6706 153.397 25.0275C153.397 23.3843 152.232 22.8897 149.939 22.45C146.077 21.7081 144.771 20.609 144.771 17.9354C144.771 15.0914 147.466 13.6268 149.793 13.6268C152.453 13.6268 154.758 14.7397 155.155 18.0535H152.886C152.546 16.3829 151.636 15.6492 149.764 15.6492C148.061 15.6492 146.955 16.5285 146.955 17.8475C146.955 19.2214 147.694 19.7709 150.413 20.2793C153.477 20.8673 155.631 21.5707 155.631 24.8241C155.631 27.6076 153.788 29.4954 150.184 29.4954C146.644 29.4844 144.516 27.6379 144.375 24.4999Z" fill="white" />
            <path d="M161.623 27.6377L155.807 13.8987H158.331L162.871 24.8899L166.985 13.8987H169.395L161.198 34.5622H158.804L161.623 27.6377Z" fill="white" />
            <path d="M171.041 13.8906H173.395V16.3224C174.076 14.8881 175.722 13.6268 178.161 13.6268C181.225 13.6268 183.382 15.3552 183.382 19.8121V29.2206H181.026V19.6363C181.026 16.9379 179.922 15.7371 177.536 15.7371C175.352 15.7371 173.395 17.1742 173.395 19.9303V29.2206H171.041V13.8906Z" fill="white" />
            <path d="M185.451 21.7081V21.4745C185.451 16.8417 188.318 13.6185 192.404 13.6185C195.835 13.6185 199.069 15.7591 199.069 21.2382V22.0378H187.898C188.01 25.5275 189.627 27.462 192.664 27.462C194.962 27.462 196.295 26.5827 196.606 24.7938H198.947C198.433 27.8714 195.968 29.4843 192.619 29.4843C188.43 29.4843 185.451 26.4343 185.451 21.7081ZM196.659 20.0594C196.43 16.8939 194.843 15.6327 192.404 15.6327C189.965 15.6327 188.374 17.3336 187.978 20.0594H196.659Z" fill="white" />
            <path d="M201.737 25.3792V15.9378H199.609V13.8906H201.737V10.4037H204.091V13.8906H207.549V15.9378H204.091V25.1456C204.091 26.6405 204.743 27.3741 205.934 27.3741C206.554 27.3877 207.171 27.2776 207.751 27.0499V29.1025C207.104 29.3356 206.422 29.4446 205.737 29.424C203.04 29.424 201.737 27.7835 201.737 25.3792Z" fill="white" />
        </svg>